<svg xmlns="http://www.w3.org/2000/svg" viewBox="0 0 128 128" role="img" aria-labelledby="title desc">
  <title id="title">Perfect Clicker Fitting Guide logo</title>
  <desc id="desc">A cute but calm capybara clicker top with a switch stem socket and fitting guide marks.</desc>
  <rect x="18" y="22" width="92" height="80" rx="18" fill="#f7eadf" stroke="#d8c5b2" stroke-width="4"/>
  <path d="M34 62c0-17 12-29 30-29s30 12 30 29-12 30-30 30-30-13-30-30Z" fill="#bd8355"/>
  <path d="M42 49c-7-7-3-18 7-18 6 0 10 4 11 9M86 49c7-7 3-18-7-18-6 0-10 4-11 9" fill="none" stroke="#bd8355" stroke-width="8" stroke-linecap="round"/>
  <path d="M50 63h28M64 49v28" stroke="#3c2d24" stroke-width="8" stroke-linecap="round"/>
  <path d="M29 104h70" stroke="#1f8a70" stroke-width="4" stroke-linecap="round"/>
  <path d="M39 104v-9M89 104v-9" stroke="#1f8a70" stroke-width="4" stroke-linecap="round"/>
</svg>
